<?xml version="1.0" standalone="no"?>
<!DOCTYPE svg PUBLIC "-//W3C//DTD SVG 20010904//EN"
 "http://www.w3.org/TR/2001/REC-SVG-20010904/DTD/svg10.dtd">
<svg version="1.0" xmlns="http://www.w3.org/2000/svg"
 width="1600.000000pt" height="1200.000000pt" viewBox="0 0 1600.000000 1200.000000"
 preserveAspectRatio="xMidYMid meet">

<g transform="translate(0.000000,1200.000000) scale(0.100000,-0.100000)"
fill="#000000" stroke="none">
<path d="M6488 9078 c-54 -28 -95 -55 -92 -60 4 -7 9 -7 13 -1 11 17 51 34 63
27 7 -4 8 -3 4 4 -4 7 19 25 61 46 37 19 64 35 58 35 -5 0 -54 -23 -107 -51z"/>
<path d="M6370 9011 c0 -6 4 -13 10 -16 6 -3 7 1 4 9 -7 18 -14 21 -14 7z"/>
<path d="M6274 8957 c-164 -101 -327 -224 -318 -239 4 -7 2 -8 -5 -4 -11 7
-51 -23 -156 -114 -77 -67 -313 -309 -372 -382 -269 -330 -463 -676 -607
-1083 -20 -55 -36 -107 -36 -115 0 -35 1414 -770 2220 -1154 225 -108 651
-306 657 -306 2 0 37 -15 76 -34 40 -19 108 -50 152 -69 44 -19 116 -51 160
-70 74 -32 161 -62 110 -37 -11 5 -37 16 -58 24 -21 9 -36 20 -32 26 6 9 -8
15 -28 11 -5 -1 -7 4 -5 11 3 7 10 14 16 14 7 1 17 2 23 3 5 0 8 5 5 10 -9 14
5 71 18 71 16 0 36 94 36 173 0 38 4 67 10 67 6 0 10 -6 10 -12 0 -9 4 -8 10
2 5 8 10 31 10 51 0 20 7 42 15 49 8 7 15 29 15 50 0 21 7 43 15 50 9 8 15 30
15 56 0 30 4 43 13 41 7 -1 13 11 15 33 4 58 12 80 27 80 10 0 15 10 16 28 1
68 25 237 33 234 14 -6 26 20 26 56 0 20 6 35 15 38 10 4 15 20 15 45 0 24 6
41 16 47 10 6 18 28 22 58 2 27 8 51 13 54 4 3 9 27 10 53 2 32 7 47 16 47 8
0 12 4 9 9 -3 4 -17 6 -32 3 -14 -2 -29 -1 -33 4 -3 5 -46 18 -96 28 -797 160
-1281 307 -1700 519 -220 111 -391 224 -570 376 -110 94 -145 130 -145 149 0
6 -5 12 -11 12 -5 0 -7 -5 -3 -12 4 -7 3 -8 -5 -4 -21 13 0 27 33 20 l33 -6 6
91 c4 63 11 96 21 107 9 8 16 23 16 33 0 10 8 33 17 52 9 19 20 54 24 79 4 25
11 65 15 90 4 25 11 51 17 58 18 23 46 116 47 155 0 24 4 36 12 35 8 -2 15 20
19 65 5 48 13 73 25 81 10 8 15 20 11 30 -4 9 -3 16 2 16 5 0 14 20 21 45 15
52 35 74 52 57 9 -9 9 -12 0 -12 -7 0 -12 -4 -12 -8 0 -5 14 -8 31 -8 l32 0
-23 18 c-17 13 -20 22 -13 29 8 8 14 5 22 -10 12 -22 31 -28 31 -10 0 5 -5 7
-12 3 -8 -5 -9 -2 -5 9 3 9 3 16 -1 14 -4 -1 -8 3 -8 8 -1 6 3 9 9 7 5 -2 14
3 18 10 5 7 14 13 20 13 7 0 14 6 17 13 6 20 -11 14 -84 -31z m-117 -133 c-3
-3 -12 -4 -19 -1 -8 3 -5 6 6 6 11 1 17 -2 13 -5z m2265 -2004 c10 0 18 -4 18
-10 0 -11 -28 -9 -47 3 -7 5 -13 13 -13 20 0 8 3 8 12 -1 7 -7 20 -12 30 -12z
m-78 -8 c3 -5 -1 -9 -9 -9 -8 0 -12 4 -9 9 3 4 7 8 9 8 2 0 6 -4 9 -8z m-1795
-92 c7 -22 16 -30 33 -30 13 0 30 -5 38 -10 12 -8 10 -13 -12 -37 -20 -22 -25
-35 -21 -60 6 -37 -9 -43 -42 -19 -17 12 -23 12 -47 0 -43 -22 -51 -18 -43 25
6 34 3 41 -20 59 -32 25 -25 42 15 42 23 0 33 7 45 30 9 17 22 30 29 30 8 0
19 -13 25 -30z m1496 -120 c11 -21 25 -31 50 -36 41 -7 42 -10 13 -41 -17 -18
-21 -34 -19 -63 3 -44 -3 -47 -44 -26 -25 13 -32 13 -56 0 -15 -8 -33 -14 -39
-14 -13 0 -13 35 0 59 7 14 4 24 -15 41 -33 31 -32 38 9 46 25 4 38 14 46 35
16 37 35 37 55 -1z m315 -36 c0 -47 -11 -62 -29 -40 -8 9 -9 16 -2 20 6 4 8
19 5 35 -4 21 -2 28 10 28 12 0 16 -11 16 -43z m-91 -283 c-1 -20 -5 -49 -9
-66 -9 -39 -18 -17 -22 56 -3 49 -1 55 15 51 12 -3 17 -14 16 -41z m-70 -213
c0 -7 -4 -22 -9 -33 -7 -17 -9 -15 -9 13 -1 17 4 32 9 32 6 0 10 -6 9 -12z
m-26 -73 c-3 -9 -8 -14 -10 -11 -3 3 -2 9 2 15 9 16 15 13 8 -4z m-11 -107
c-2 -27 -8 -48 -13 -48 -10 0 -12 93 -2 103 13 14 20 -9 15 -55z m-82 -268 c1
-14 2 -42 1 -62 -1 -34 -4 -38 -26 -38 -30 0 -33 -24 -8 -52 15 -17 15 -18 -6
-18 -12 0 -20 -4 -17 -8 2 -4 1 -14 -5 -22 -6 -11 -9 -12 -9 -2 0 7 -4 11 -8
8 -4 -2 -14 -1 -22 5 -12 7 -10 9 8 9 19 0 22 5 22 40 0 22 4 40 8 40 11 0 38
80 34 99 -2 7 -1 20 3 29 8 20 23 4 25 -28z m-102 -115 c-3 -3 -9 2 -12 12 -6
14 -5 15 5 6 7 -7 10 -15 7 -18z"/>
<path d="M6396 8983 c-6 -14 -5 -15 5 -6 7 7 10 15 7 18 -3 3 -9 -2 -12 -12z"/>
<path d="M6440 8990 c0 -5 5 -10 10 -10 6 0 10 5 10 10 0 6 -4 10 -10 10 -5 0
-10 -4 -10 -10z"/>
<path d="M6326 8954 c-9 -23 -2 -28 13 -10 7 8 8 17 3 20 -6 3 -13 -1 -16 -10z"/>
<path d="M6420 8945 c0 -8 2 -15 4 -15 2 0 6 7 10 15 3 8 1 15 -4 15 -6 0 -10
-7 -10 -15z"/>
<path d="M6225 8860 c3 -5 8 -10 11 -10 2 0 4 5 4 10 0 6 -5 10 -11 10 -5 0
-7 -4 -4 -10z"/>
<path d="M6338 8713 c7 -3 16 -2 19 1 4 3 -2 6 -13 5 -11 0 -14 -3 -6 -6z"/>
<path d="M6320 8610 c0 -5 5 -10 10 -10 6 0 10 5 10 10 0 6 -4 10 -10 10 -5 0
-10 -4 -10 -10z"/>
<path d="M3615 8484 c-264 -52 -425 -188 -466 -393 -28 -142 9 -330 98 -504
49 -97 165 -274 242 -370 104 -131 333 -386 432 -483 124 -121 489 -448 611
-549 l98 -80 0 -165 c1 -507 121 -1016 350 -1485 532 -1087 1588 -1823 2785
-1940 191 -19 617 -16 780 5 541 69 1059 263 1517 567 l96 64 89 -26 c250 -73
586 -156 758 -186 66 -11 122 -22 126 -24 12 -8 293 -35 424 -41 137 -6 417 7
560 27 307 42 555 152 661 294 86 114 110 197 102 348 -12 203 -134 404 -410
672 -67 67 -161 152 -208 191 -108 89 -275 211 -264 193 4 -8 47 -66 94 -129
323 -431 472 -710 474 -885 2 -121 -45 -164 -218 -202 -88 -19 -395 -22 -541
-4 -273 33 -661 132 -965 246 -52 20 -124 47 -160 60 -118 43 -243 92 -395
155 -82 34 -186 77 -230 95 -111 46 -283 119 -360 155 -752 345 -794 364
-1305 620 -294 147 -479 241 -710 363 -282 148 -446 236 -545 292 -60 34 -135
76 -165 92 -169 93 -736 419 -865 496 -477 288 -1154 723 -1410 908 -49 35
-115 82 -145 104 -724 521 -1103 919 -1066 1120 11 55 63 102 178 159 113 56
223 89 383 116 66 11 127 22 135 25 8 2 93 11 189 19 96 9 176 17 178 20 8 7
-127 34 -304 60 -232 35 -453 35 -628 0z m4013 -4129 c8 -17 20 -25 36 -25 34
0 40 -14 15 -36 -15 -13 -18 -25 -13 -47 6 -28 5 -29 -17 -22 -30 9 -48 9 -78
-1 -23 -7 -24 -5 -18 24 4 20 1 34 -8 42 -23 19 -18 40 10 40 17 0 29 8 37 25
6 14 14 25 18 25 4 0 12 -11 18 -25z m-1235 -394 c8 -23 19 -30 49 -35 44 -7
47 -14 14 -45 -20 -19 -23 -29 -19 -62 6 -44 4 -45 -38 -24 -27 14 -33 14 -61
0 -17 -8 -33 -15 -35 -15 -3 0 -3 18 -2 40 3 30 -2 45 -20 64 -28 30 -20 46
23 46 28 0 36 5 46 30 16 38 29 38 43 1z m1927 -761 c6 -11 20 -20 30 -20 23
0 26 -22 6 -39 -7 -6 -11 -22 -8 -36 5 -27 -15 -34 -36 -13 -9 9 -15 9 -24 0
-21 -21 -41 -14 -36 13 3 16 -1 30 -13 41 -21 19 -16 34 11 34 11 0 24 9 30
20 6 11 15 20 20 20 5 0 14 -9 20 -20z"/>
<path d="M6240 8285 c0 -8 2 -15 4 -15 2 0 6 7 10 15 3 8 1 15 -4 15 -6 0 -10
-7 -10 -15z"/>
<path d="M6101 8064 c0 -11 3 -14 6 -6 3 7 2 16 -1 19 -3 4 -6 -2 -5 -13z"/>
<path d="M6288 8023 c6 -2 18 -2 25 0 6 3 1 5 -13 5 -14 0 -19 -2 -12 -5z"/>
<path d="M6238 8013 c6 -2 18 -2 25 0 6 3 1 5 -13 5 -14 0 -19 -2 -12 -5z"/>
<path d="M6468 8013 c6 -2 18 -2 25 0 6 3 1 5 -13 5 -14 0 -19 -2 -12 -5z"/>
<path d="M6150 7991 c0 -6 4 -12 8 -15 5 -3 9 1 9 9 0 8 -4 15 -9 15 -4 0 -8
-4 -8 -9z"/>
<path d="M6250 7945 c19 -19 36 -35 39 -35 3 0 -10 16 -29 35 -19 19 -36 35
-39 35 -3 0 10 -16 29 -35z"/>
<path d="M6470 7935 c-7 -9 -11 -17 -9 -20 3 -2 10 5 17 15 14 24 10 26 -8 5z"/>
<path d="M5910 7907 c0 -2 13 -16 29 -31 l28 -27 -4 25 c-3 14 -9 23 -14 20
-5 -3 -9 0 -9 5 0 6 -7 11 -15 11 -8 0 -15 -1 -15 -3z"/>
<path d="M6264 7886 c-3 -8 -4 -25 -2 -38 3 -17 5 -13 9 15 5 38 2 47 -7 23z"/>
<path d="M5985 7880 c3 -5 8 -10 11 -10 2 0 4 5 4 10 0 6 -5 10 -11 10 -5 0
-7 -4 -4 -10z"/>
<path d="M6370 7850 c8 -5 20 -10 25 -10 6 0 3 5 -5 10 -8 5 -19 10 -25 10 -5
0 -3 -5 5 -10z"/>
<path d="M6002 7821 c2 -7 7 -12 11 -12 12 1 9 15 -3 20 -7 2 -11 -2 -8 -8z"/>
<path d="M8568 6803 c6 -2 18 -2 25 0 6 3 1 5 -13 5 -14 0 -19 -2 -12 -5z"/>
<path d="M8220 5312 c8 -5 26 -13 40 -16 17 -5 20 -4 10 2 -8 5 -26 13 -40 16
-17 5 -20 4 -10 -2z"/>
</g>
</svg>
